PathFileType	4	(X/Y/Z)	pose_F01_0-92.trc
DataRate	CameraRate	NumFrames	NumMarkers	Units	OrigDataRate	OrigDataStartFrame	OrigNumFrames
30	30	8	21	m	30	78	92
Frame#	Time	CHip			RHip			RKnee			RAnkle			RBigToe			RSmallToe			RHeel			LHip			LKnee			LAnkle			LBigToe			LSmallToe			LHeel			Neck			Nose			RShoulder			RElbow			RWrist			LShoulder			LElbow			LWrist			
		X1	Y1	Z1	X2	Y2	Z2	X3	Y3	Z3	X4	Y4	Z4	X5	Y5	Z5	X6	Y6	Z6	X7	Y7	Z7	X8	Y8	Z8	X9	Y9	Z9	X10	Y10	Z10	X11	Y11	Z11	X12	Y12	Z12	X13	Y13	Z13	X14	Y14	Z14	X15	Y15	Z15	X16	Y16	Z16	X17	Y17	Z17	X18	Y18	Z18	X19	Y19	Z19	X20	Y20	Z20	X21	Y21	Z21	
78	2.6	-0.26422402539279993	1.88770699509351	-0.6682315294086342	-0.27971893034459394	1.8849301535800356	-0.5981938881750933	-0.29176019884706567	1.7422551039419596	-0.572951999293442													-0.24850363827470848	1.8902231816683133	-0.7329392595991691	-0.28289322482189816	1.759293131944879	-0.6307304472202228	-0.263070323074273	1.6402482582301843	-0.7222865923490269	-0.24319287828254443	1.5869225018089845	-0.6736898616535908	-0.23590275723623388	1.5967784196698764	-0.7117394454873063	-0.2550621309209588	1.6259239649930881	-0.7035568654229565	-0.26932951737253674	2.050168088285856	-0.6909374380232203	-0.25245113681721226	2.1184455475052584	-0.6795110977847999	-0.29238070476817446	2.04612932680368	-0.6023569938516092	-1.5291764582476763	1.8644174902294823	0.7300493051171633	-0.29821092489861634	1.8844638057169327	-0.5322619394659367	-0.2465821771019461	2.0543577613851696	-0.7800905790677942	-0.23638419646694944	1.9650880017227186	-0.7977569728991509	-0.2266823806897713	1.8878063922158985	-0.7958599068203527
79	2.6333333333333333	-0.2641390399167324	1.8881044954368724	-0.6683192561806567	-0.27777361081838403	1.886204957985735	-0.6005006451271452	-0.29176019884706567	1.7422551039419596	-0.572951999293442													-0.2486193859698907	1.8891829492786263	-0.7329270974357925	-0.28289322482189816	1.759293131944879	-0.6307304472202228	-0.263070323074273	1.6402482582301843	-0.7222865923490269	-0.24319287828254443	1.5869225018089845	-0.6736898616535908	-0.23590275723623388	1.5967784196698764	-0.7117394454873063	-0.2550621309209588	1.6259239649930881	-0.7035568654229565	-0.26906182001333123	2.049995467011842	-0.690560099238541	-0.2523403994121087	2.1186836679928325	-0.6794377237268089	-0.2902076478704245	2.047232661859035	-0.6043074338903719	-1.5240677982902178	1.8671725865409992	0.7188400235414932	-0.30014600888034365	1.8844056077698192	-0.5385846966603872	-0.24198147904314238	2.0558670745858962	-0.7844277261106238	-0.2378332463355379	1.9662006313729925	-0.8039924606516666	-0.2256498701805037	1.888747794429843	-0.7987608770157332
80	2.6666666666666665	-0.2612118326387833	1.8895561432457901	-0.6675425735150021	-0.2777771225595553	1.888025029960207	-0.6005723523661759	-0.29176019884706567	1.7422551039419596	-0.572951999293442													-0.24766873169070827	1.8915383962471346	-0.7302657500684807	-0.28289322482189816	1.759293131944879	-0.6307304472202228	-0.263070323074273	1.6402482582301843	-0.7222865923490269	-0.24319287828254443	1.5869225018089845	-0.6736898616535908	-0.23590275723623388	1.5967784196698764	-0.7117394454873063	-0.2550621309209588	1.6259239649930881	-0.7035568654229565	-0.26705578748586817	2.048727976054513	-0.6926641059249823	-0.25137296639950324	2.118535446189025	-0.6764666851264719	-0.2891559029428602	2.046052411785573	-0.6008404856230253	-1.5291558186733996	1.8653364193344109	0.7298478944923316	-0.29599405961212294	1.8856691133012558	-0.5259028566561823	-0.23977693008657658	2.0533887749406032	-0.786341270890276	-0.23713353117557423	1.9656124651629483	-0.8009303711807458	-0.22775266143519116	1.8843049351883536	-0.8046462032779286
81	2.7	-0.2623308639182373	1.8875815113343852	-0.6621163461434223	-0.27961770816614423	1.8848017070265357	-0.5980426467215446	-0.29176019884706567	1.7422551039419596	-0.572951999293442													-0.24774976530977746	1.889133521548547	-0.7297766096623723	-0.28289322482189816	1.759293131944879	-0.6307304472202228	-0.263070323074273	1.6402482582301843	-0.7222865923490269	-0.24319287828254443	1.5869225018089845	-0.6736898616535908	-0.23590275723623388	1.5967784196698764	-0.7117394454873063	-0.2550621309209588	1.6259239649930881	-0.7035568654229565	-0.26612777896541323	2.050260036663941	-0.6900999883697866	-0.2504116798495512	2.1195975035324053	-0.6732930261998417	-0.2882016617430869	2.0473243622325534	-0.5983027335202417	-1.5229983603235522	1.8657238296572776	0.7234273270239021	-0.29532561463901513	1.8886030373928342	-0.525939724486353	-0.2389577081862257	2.054457653397261	-0.7837855798384897	-0.23638739729226688	1.9643615957410272	-0.7978895961179996	-0.22698618283203434	1.8835076639789425	-0.8012300297731695
82	2.7333333333333334	-0.2620695139135961	1.888511662467201	-0.6621912058287024	-0.27649789958582416	1.886488264095246	-0.5971380936248065	-0.29176019884706567	1.7422551039419596	-0.572951999293442													-0.2473559828471699	1.8918675181168958	-0.7299707106491979	-0.28289322482189816	1.759293131944879	-0.6307304472202228	-0.263070323074273	1.6402482582301843	-0.7222865923490269	-0.24319287828254443	1.5869225018089845	-0.6736898616535908	-0.23590275723623388	1.5967784196698764	-0.7117394454873063	-0.2550621309209588	1.6259239649930881	-0.7035568654229565	-0.26510914819815623	2.0529553764302486	-0.6874016494336905	-0.2486090253392116	2.1205828596079956	-0.6679578211522726	-0.28816246756685937	2.0474993410566573	-0.5982258288445864	-1.5278336809057254	1.8633802465039102	0.7339974083693008	-0.2948659774694259	1.8835440907713898	-0.5223291522329453	-0.23798639506668404	2.0570921422229898	-0.7810360093823275	-0.23561943997786297	1.9655036079556567	-0.7950193488871296	-0.22477891165626096	1.884686617312573	-0.7922642004359985
83	2.7666666666666666	-0.2608719980471969	1.8885207256629133	-0.6590473165412736	-0.2753286445647204	1.888610872753579	-0.5939793080348782	-0.29176019884706567	1.7422551039419596	-0.572951999293442													-0.24640449731934727	1.8907504700499234	-0.7268460279600633	-0.28289322482189816	1.759293131944879	-0.6307304472202228	-0.263070323074273	1.6402482582301843	-0.7222865923490269	-0.24319287828254443	1.5869225018089845	-0.6736898616535908	-0.23590275723623388	1.5967784196698764	-0.7117394454873063	-0.2550621309209588	1.6259239649930881	-0.7035568654229565	-0.2632338199126511	2.052828694100456	-0.6813724840664477	-0.2467963155023278	2.1201706492855075	-0.6619638123806781	-0.28526622479561375	2.0469175315259394	-0.5889864041147976	-1.536738593380191	1.8654793766278426	0.7502788650722272	-0.2933391789761341	1.888625100278951	-0.5194951323418132	-0.23490211687108992	2.0573100394308788	-0.7801943541175707	-0.23240787766585647	1.965519264739606	-0.7940662214948326	-0.22569875968062342	1.8826364163142226	-0.7867204229880196
84	2.8	-0.2593196503452742	1.8926794567950063	-0.6616671382140662	-0.2746792941456262	1.8897164728761882	-0.5912093830178974	-0.29176019884706567	1.7422551039419596	-0.572951999293442													-0.24482722393960524	1.893910155527159	-0.7294343735490593	-0.24990581887329788	1.7484292757535016	-0.7295028401285923	-0.263070323074273	1.6402482582301843	-0.7222865923490269	-0.24319287828254443	1.5869225018089845	-0.6736898616535908	-0.23590275723623388	1.5967784196698764	-0.7117394454873063	-0.2550621309209588	1.6259239649930881	-0.7035568654229565	-0.2602215923201	2.05244944943944	-0.680499944977507	-0.24388651796869718	2.1200457001639688	-0.6610193143121625	-0.28226728438361814	2.046563612841259	-0.5880355425472351	-1.538365069673171	1.8665362628742148	0.7528324058318498	-0.2961924370652885	1.890555049156183	-0.5258052147836483	-0.23400896854156383	2.0572199185001696	-0.7773440412214503	-0.23030681431208042	1.9663351700211655	-0.7968415161426822	-0.2245871919816114	1.882789881991868	-0.7921883648339536
85	2.8333333333333335	-0.25909953288815907	1.8869412876212337	-0.6609551231824717	-0.2745482928175001	1.8852184662177212	-0.5905336497956268	-0.29176019884706567	1.7422551039419596	-0.572951999293442													-0.24453440120070777	1.8904248410336946	-0.7290942126621691	-0.24966510618162524	1.743575821201535	-0.7295527747005894	-0.263070323074273	1.6402482582301843	-0.7222865923490269	-0.24319287828254443	1.5869225018089845	-0.6736898616535908	-0.23590275723623388	1.5967784196698764	-0.7117394454873063	-0.2550621309209588	1.6259239649930881	-0.7035568654229565	-0.2593412255657081	2.0523410619710947	-0.6775122369508133	-0.24288331347403674	2.1209968394104415	-0.6578639817942817	-0.28424872205967744	2.046512806022105	-0.5859245902630017	-1.539991545966151	1.867593149120587	0.7553859465914725	-0.29904569515444296	1.8924849980334153	-0.5321152972254833	-0.2331166804339421	2.0571950796734018	-0.7743198081243863	-0.23097427522742062	1.965863814304456	-0.7995745359104002	-0.22576396530746357	1.8865882356847	-0.7953559999797043
